HIERARCHY
ROOT Hips
{
	OFFSET 28.026899 42.631786 98.480507
	CHANNELS 6 Xposition Yposition Zposition Xrotation Yrotation Zrotation
	JOINT spine
	{
		OFFSET 0.000000 -0.477356 8.301041
		CHANNELS 3 Xrotation Yrotation Zrotation
		JOINT spine1
		{
			OFFSET 0.000000 0.000000 10.456497
			CHANNELS 3 Xrotation Yrotation Zrotation
			JOINT spine2
			{
				OFFSET 0.000000 0.000000 10.019203
				CHANNELS 3 Xrotation Yrotation Zrotation
				JOINT Neck
				{
					OFFSET 0.000000 -1.226418 25.723495
					CHANNELS 3 Xrotation Yrotation Zrotation
					JOINT Head
					{
						OFFSET 0.000000 0.000000 7.771744
						CHANNELS 3 Xrotation Yrotation Zrotation
						End Site
						{
							OFFSET 0.000000 6.203938 18.812012
						}
					}
				}
				JOINT RightShoulder
				{
					OFFSET -4.218800 0.587437 10.819992
					CHANNELS 3 Xrotation Yrotation Zrotation
					JOINT RightArm
					{
						OFFSET 0.000000 -0.000004 14.191406
						CHANNELS 3 Xrotation Yrotation Zrotation
						JOINT RightArmRoll
						{
							OFFSET 0.000000 0.000000 7.164078
							CHANNELS 3 Xrotation Yrotation Zrotation
							JOINT RightForeArm
							{
								OFFSET 0.000000 -0.000004 20.866501
								CHANNELS 3 Xrotation Yrotation Zrotation
								JOINT RightForeArmRoll
								{
									OFFSET 0.000000 0.000000 8.039215
									CHANNELS 3 Xrotation Yrotation Zrotation
									JOINT RightHand
									{
										OFFSET 0.000000 -0.000004 16.132996
										CHANNELS 3 Xrotation Yrotation Zrotation
										End Site
										{
											OFFSET 0.000000 0.000000 0.100006
										}
									}
								}
							}
						}
					}
				}
				JOINT LeftShoulder
				{
					OFFSET 4.218801 0.587437 10.819992
					CHANNELS 3 Xrotation Yrotation Zrotation
					JOINT LeftArm
					{
						OFFSET 0.000000 -0.000004 14.191406
						CHANNELS 3 Xrotation Yrotation Zrotation
						JOINT LeftArmRoll
						{
							OFFSET 0.000000 0.000000 7.164078
							CHANNELS 3 Xrotation Yrotation Zrotation
							JOINT LeftForeArm
							{
								OFFSET 0.000000 -0.000004 20.866501
								CHANNELS 3 Xrotation Yrotation Zrotation
								JOINT LeftForeArmRoll
								{
									OFFSET 0.000000 0.000000 8.039215
									CHANNELS 3 Xrotation Yrotation Zrotation
									JOINT LeftHand
									{
										OFFSET 0.000000 -0.000004 16.132996
										CHANNELS 3 Xrotation Yrotation Zrotation
										End Site
										{
											OFFSET 0.000000 0.000000 0.100006
										}
									}
								}
							}
						}
					}
				}
			}
		}
	}
	JOINT RightUpLeg
	{
		OFFSET -7.357729 1.131821 -1.349213
		CHANNELS 3 Xrotation Yrotation Zrotation
		JOINT RightUpLegRoll
		{
			OFFSET 0.000000 -0.000004 18.916801
			CHANNELS 3 Xrotation Yrotation Zrotation
			JOINT RightLeg
			{
				OFFSET 0.000000 0.000004 -23.425598
				CHANNELS 3 Xrotation Yrotation Zrotation
				JOINT RightLegRoll
				{
					OFFSET 0.000000 -0.000004 23.502296
					CHANNELS 3 Xrotation Yrotation Zrotation
					JOINT RightFoot
					{
						OFFSET 0.000000 -0.000004 19.561699
						CHANNELS 3 Xrotation Yrotation Zrotation
						JOINT RightToeBase
						{
							OFFSET 0.000000 0.000000 16.352600
							CHANNELS 3 Xrotation Yrotation Zrotation
							End Site
							{
								OFFSET 0.006931 0.912834 7.919434
							}
						}
					}
				}
			}
		}
	}
	JOINT LeftUpLeg
	{
		OFFSET 7.357729 1.131821 -1.349213
		CHANNELS 3 Xrotation Yrotation Zrotation
		JOINT LeftUpLegRoll
		{
			OFFSET 0.000000 -0.000004 18.916901
			CHANNELS 3 Xrotation Yrotation Zrotation
			JOINT LeftLeg
			{
				OFFSET 0.000000 -0.000004 23.425499
				CHANNELS 3 Xrotation Yrotation Zrotation
				JOINT LeftLegRoll
				{
					OFFSET 0.000000 -0.000004 23.719498
					CHANNELS 3 Xrotation Yrotation Zrotation
					JOINT LeftFoot
					{
						OFFSET 0.000000 -0.000004 19.344406
						CHANNELS 3 Xrotation Yrotation Zrotation
						JOINT LeftToeBase
						{
							OFFSET 0.000000 0.000000 16.352600
							CHANNELS 3 Xrotation Yrotation Zrotation
							End Site
							{
								OFFSET -0.031063 0.912834 7.919434
							}
						}
					}
				}
			}
		}
	}
}
MOTION
Frames: 13
Frame Time: 0.041667
28.002600 27.122686 119.460007 -2.717616 0.431141 8.341596 -0.651818 -0.181427 0.250780 2.699994 -0.363190 0.501842 4.345055 -0.357154 0.506156 14.192612 -1.623010 -4.574309 -8.942801 0.854997 -4.533071 -7.246210 -68.598158 -9.269242 -69.151342 -108.158948 -45.789988 -0.000008 -0.000001 -0.000022 0.827407 -12.560234 0.243555 0.000002 0.000009 -3.010079 -5.000223 -7.998971 0.000137 4.431617 62.453412 -4.626618 -46.653634 104.456180 34.137982 -0.000000 -0.000002 -0.000000 15.792350 12.193338 -1.114742 0.000000 -0.000006 3.008100 -5.000233 7.998893 -0.000144 1.429435 -174.294762 2.475881 -179.999991 0.000005 -1.170007 171.067347 -3.621660 -0.873859 -0.000005 -0.000002 0.105053 68.266880 6.886097 2.193320 25.456856 -7.355621 -0.000016 -3.330947 170.106408 -3.353470 -0.000005 -0.000004 -1.236361 -13.846741 4.521128 1.280548 -0.000004 0.000000 -0.207134 67.621653 -6.916686 -2.154482 25.456854 7.355620 0.000016 
28.001301 27.155781 119.359016 -2.678688 0.467032 8.341701 -0.652289 -0.178334 0.252432 2.699043 -0.357011 0.505243 4.344102 -0.350933 0.509481 14.166798 -1.743866 -4.574468 -8.965237 0.941065 -4.530743 -7.241037 -68.706519 -9.271113 -69.597476 -108.122858 -46.330133 -0.000008 0.000000 -0.000020 0.919915 -12.650125 0.250246 0.000003 0.000008 -3.010020 -5.000224 -7.998971 0.000135 4.411238 62.402671 -4.610687 -46.670676 104.446447 34.178195 -0.000001 -0.000002 0.000001 15.900308 12.195604 -1.124562 -0.000003 -0.000006 3.008100 -5.000231 7.998892 -0.000143 1.357985 -174.331590 2.439394 -179.999991 0.000004 -1.167001 171.091499 -3.625853 -0.871955 -0.000006 -0.000002 0.104843 68.280452 6.885433 2.193847 25.456863 -7.355622 -0.000014 -3.401581 170.063186 -3.339894 -0.000005 -0.000005 -1.236180 -13.844562 4.491623 1.277239 -0.000003 0.000001 -0.206435 67.613040 -6.916665 -2.153518 25.456854 7.355621 0.000014 
27.959299 27.198486 119.202011 -2.640759 0.503121 8.341365 -0.652266 -0.175427 0.254181 2.699081 -0.351198 0.508819 4.344140 -0.345079 0.512987 14.138321 -1.861922 -4.574697 -8.988012 1.025743 -4.528307 -7.236653 -68.811943 -9.273661 -70.037422 -108.090571 -46.864431 -0.000010 -0.000001 -0.000021 1.013502 -12.739175 0.257142 0.000000 0.000008 -3.009951 -5.000221 -7.998974 0.000135 4.390678 62.352230 -4.594491 -46.685716 104.439029 34.216591 -0.000000 -0.000002 -0.000000 16.008676 12.197696 -1.134421 0.000000 -0.000005 3.008100 -5.000231 7.998893 -0.000143 1.285522 -174.367421 2.404382 -179.999991 0.000005 -1.163996 171.111129 -3.630987 -0.870473 -0.000006 -0.000002 0.104716 68.294139 6.884773 2.194366 25.456856 -7.355623 -0.000015 -3.472401 170.019992 -3.327059 -0.000005 -0.000004 -1.236089 -13.844390 4.461873 1.274031 -0.000004 0.000001 -0.205762 67.604441 -6.916684 -2.152561 25.456856 7.355621 0.000016 
27.960098 27.235886 119.099007 -2.604017 0.539334 8.340439 -0.651758 -0.172741 0.256021 2.700089 -0.345827 0.512542 4.345157 -0.339663 0.516646 14.107557 -1.975274 -4.575039 -9.011012 1.107081 -4.525818 -7.233077 -68.912476 -9.276730 -70.463606 -108.063073 -47.384116 -0.000010 -0.000000 -0.000021 1.106962 -12.825887 0.264198 -0.000001 0.000008 -3.009890 -5.000220 -7.998972 0.000134 4.369565 62.302718 -4.577511 -46.704967 104.432684 34.259505 -0.000000 0.000001 -0.000001 16.116403 12.199391 -1.144135 -0.000001 -0.000006 3.008101 -5.000231 7.998892 -0.000144 1.212173 -174.402242 2.371006 -179.999991 0.000004 -1.161004 171.125923 -3.636074 -0.868311 -0.000006 -0.000002 0.104680 68.308039 6.884125 2.194775 25.456860 -7.355621 -0.000015 -3.542787 169.975814 -3.315283 -0.000005 -0.000004 -1.236102 -13.845929 4.432211 1.270932 -0.000004 0.000001 -0.205113 67.595718 -6.916647 -2.151604 25.456854 7.355618 0.000014 
27.945299 27.273987 118.973999 -2.568590 0.575596 8.338792 -0.650762 -0.170311 0.257942 2.702078 -0.340967 0.516394 4.347144 -0.334757 0.520438 14.074883 -2.081981 -4.575522 -9.034141 1.183095 -4.523347 -7.230264 -69.005954 -9.280144 -70.867509 -108.041503 -47.879725 -0.000010 -0.000001 -0.000022 1.199107 -12.908869 0.271356 -0.000001 0.000008 -3.009819 -5.000221 -7.998971 0.000134 4.347424 62.254633 -4.559127 -46.726465 104.428306 34.304379 -0.000001 0.000002 0.000002 16.222877 12.200627 -1.153684 -0.000000 -0.000005 3.008101 -5.000232 7.998894 -0.000143 1.138073 -174.437089 2.339365 -179.999991 0.000005 -1.158996 171.135553 -3.644065 -0.867933 -0.000006 -0.000002 0.104733 68.322246 6.883461 2.195361 25.456854 -7.355621 -0.000014 -3.612108 169.929629 -3.304873 -0.000005 -0.000004 -1.236220 -13.848781 4.402960 1.267954 -0.000004 0.000001 -0.204497 67.586491 -6.916635 -2.150779 25.456856 7.355618 0.000015 
27.936899 27.283585 118.845016 -2.534673 0.611836 8.336294 -0.649285 -0.168174 0.259934 2.705027 -0.336689 0.520347 4.350092 -0.330433 0.524340 14.040570 -2.180138 -4.576167 -9.057290 1.251851 -4.520968 -7.228206 -69.090444 -9.283745 -71.241646 -108.026695 -48.342682 -0.000009 -0.000001 -0.000021 1.288737 -12.986726 0.278540 -0.000001 0.000008 -3.009749 -5.000220 -7.998972 0.000135 4.323896 62.208789 -4.538820 -46.755804 104.424829 34.356821 -0.000001 0.000001 0.000002 16.327069 12.201285 -1.162927 -0.000001 -0.000005 3.008100 -5.000232 7.998893 -0.000142 1.063329 -174.470953 2.309634 -179.999991 0.000005 -1.156004 171.139651 -3.652016 -0.866894 -0.000006 -0.000002 0.104879 68.337094 6.882800 2.195707 25.456858 -7.355621 -0.000015 -3.679725 169.883457 -3.296349 -0.000005 -0.000005 -1.236461 -13.852756 4.374455 1.265116 -0.000004 0.000001 -0.203910 67.576512 -6.916628 -2.150005 25.456858 7.355620 0.000014 
27.919399 27.327688 118.708008 -2.502401 0.647979 8.332788 -0.647332 -0.166365 0.261995 2.708926 -0.333066 0.524380 4.353992 -0.326762 0.528328 14.004992 -2.267819 -4.577005 -9.080346 1.311365 -4.518734 -7.226863 -69.163834 -9.287370 -71.577418 -108.019653 -48.763439 -0.000009 0.000001 -0.000021 1.374653 -13.058073 0.285662 0.000000 0.000008 -3.009680 -5.000222 -7.998971 0.000135 4.298501 62.165616 -4.515981 -46.791348 104.423067 34.414731 0.000001 -0.000001 0.000001 16.428229 12.201114 -1.171746 -0.000001 -0.000005 3.008102 -5.000230 7.998893 -0.000142 0.988090 -174.503820 2.281966 -179.999991 0.000005 -1.152999 171.137889 -3.662866 -0.866703 -0.000006 -0.000002 0.105123 68.352572 6.882150 2.196020 25.456858 -7.355621 -0.000015 -3.745024 169.836301 -3.290033 -0.000005 -0.000005 -1.236840 -13.857256 4.347021 1.262412 -0.000003 0.000001 -0.203368 67.565590 -6.916603 -2.149286 25.456860 7.355621 0.000015 
27.904100 27.379185 118.575005 -2.471955 0.683953 8.328158 -0.644908 -0.164921 0.264115 2.713775 -0.330170 0.528468 4.358840 -0.323818 0.532379 13.968515 -2.343112 -4.578017 -9.103207 1.359685 -4.516747 -7.226233 -69.224118 -9.290858 -71.866233 -108.021115 -49.132283 -0.000010 -0.000001 -0.000021 1.455644 -13.121412 0.292621 -0.000002 0.000008 -3.009610 -5.000222 -7.998971 0.000135 4.270821 62.125604 -4.490037 -46.834682 104.422910 34.479669 -0.000000 0.000003 0.000000 16.525445 12.200084 -1.180064 -0.000002 -0.000005 3.008101 -5.000233 7.998892 -0.000143 0.912471 -174.534693 2.256503 -179.999991 0.000004 -1.151004 171.129939 -3.673652 -0.866894 -0.000006 -0.000002 0.105467 68.368780 6.881474 2.196480 25.456858 -7.355622 -0.000015 -3.807386 169.788121 -3.286298 -0.000005 -0.000004 -1.237359 -13.862085 4.321000 1.259868 -0.000003 0.000001 -0.202864 67.553310 -6.916595 -2.148854 25.456861 7.355619 0.000017 
27.857599 27.413090 118.398010 -2.443505 0.719682 8.322250 -0.642015 -0.163875 0.266287 2.719564 -0.328070 0.532587 4.364629 -0.321670 0.536475 13.931410 -2.404099 -4.579224 -9.125760 1.394848 -4.515051 -7.226274 -69.269286 -9.294023 -72.101000 -108.032098 -49.441202 -0.000010 0.000000 -0.000020 1.530496 -13.175265 0.299298 -0.000001 0.000008 -3.009539 -5.000224 -7.998972 0.000134 4.240475 62.089582 -4.460456 -46.887264 104.424433 34.552530 -0.000001 -0.000001 -0.000001 16.617990 12.198056 -1.187798 -0.000001 -0.000006 3.008101 -5.000232 7.998893 -0.000142 0.836598 -174.565592 2.233356 -179.999991 0.000004 -1.148997 171.115486 -3.687344 -0.867984 -0.000006 -0.000002 0.105913 68.386046 6.880797 2.196874 25.456858 -7.355621 -0.000015 -3.866158 169.739900 -3.285606 -0.000005 -0.000004 -1.238040 -13.866748 4.296702 1.257482 -0.000004 0.000001 -0.202406 67.539458 -6.916580 -2.148723 25.456858 7.355619 0.000016 
27.862198 27.472984 118.270004 -2.417190 0.755094 8.314933 -0.638661 -0.163266 0.268499 2.726285 -0.326840 0.536716 4.371349 -0.320389 0.540589 13.894241 -2.448852 -4.580597 -9.147893 1.414902 -4.513760 -7.226934 -69.297228 -9.296682 -72.272725 -108.053395 -49.679917 -0.000009 -0.000000 -0.000021 1.598000 -13.218438 0.305583 0.000001 0.000008 -3.009470 -5.000221 -7.998973 0.000135 4.207025 62.058047 -4.426652 -46.950775 104.427507 34.634950 -0.000001 -0.000002 -0.000000 16.704923 12.194892 -1.194831 0.000000 -0.000006 3.008100 -5.000233 7.998892 -0.000143 0.760597 -174.594484 2.212705 -179.999991 0.000005 -1.146005 171.094162 -3.701949 -0.869679 -0.000006 -0.000002 0.106466 68.404358 6.880122 2.197203 25.456854 -7.355621 -0.000015 -3.920729 169.690654 -3.288283 -0.000004 -0.000005 -1.238891 -13.870951 4.274472 1.255277 -0.000004 0.000001 -0.202002 67.523728 -6.916612 -2.148818 25.456856 7.355621 0.000014 
27.826097 27.508480 118.080017 -2.392379 0.790882 8.306111 -0.634945 -0.163090 0.270817 2.733724 -0.326475 0.540928 4.378789 -0.319974 0.544796 13.856429 -2.479585 -4.581950 -9.171088 1.421720 -4.512661 -7.227989 -69.310458 -9.298725 -72.390819 -108.083932 -49.859445 -0.000010 0.000000 -0.000020 1.659280 -13.252541 0.311387 0.000001 0.000008 -3.009390 -5.000224 -7.998972 0.000135 4.168853 62.029271 -4.387023 -47.020289 104.433586 34.722387 -0.000000 0.000002 0.000001 16.787164 12.190554 -1.201203 -0.000001 -0.000005 3.008101 -5.000230 7.998893 -0.000144 0.683634 -174.623376 2.193919 -179.999991 0.000005 -1.143997 171.066637 -3.718473 -0.871086 -0.000006 -0.000002 0.107132 68.424015 6.879390 2.197640 25.456856 -7.355622 -0.000015 -3.971917 169.639400 -3.294260 -0.000005 -0.000005 -1.239890 -13.873686 4.254153 1.253141 -0.000003 0.000001 -0.201610 67.506195 -6.916573 -2.149210 25.456853 7.355619 0.000012 
27.851301 27.534082 117.939003 -2.368426 0.827640 8.295860 -0.630941 -0.163305 0.273286 2.741734 -0.326889 0.545299 4.386798 -0.320336 0.549171 13.817614 -2.500160 -4.583086 -9.196532 1.418972 -4.511529 -7.229229 -69.313224 -9.300243 -72.470862 -108.121710 -49.997231 -0.000010 -0.000001 -0.000021 1.716519 -13.280651 0.316729 0.000002 0.000008 -3.009319 -5.000221 -7.998971 0.000135 4.125284 62.001233 -4.341075 -47.091286 104.443346 34.810968 -0.000001 0.000001 -0.000001 16.866353 12.185034 -1.207071 0.000000 -0.000005 3.008100 -5.000232 7.998893 -0.000143 0.604952 -174.651298 2.176382 -179.999991 0.000005 -1.142002 171.033715 -3.735911 -0.874024 -0.000006 -0.000002 0.107914 68.444861 6.878698 2.197908 25.456856 -7.355622 -0.000015 -4.021027 169.586139 -3.303094 -0.000005 -0.000004 -1.241031 -13.874744 4.235245 1.250983 -0.000004 0.000001 -0.201204 67.487214 -6.916573 -2.149603 25.456856 7.355620 0.000015 
27.775200 27.583092 117.752007 -2.345448 0.865138 8.284323 -0.626608 -0.163886 0.275894 2.750415 -0.328032 0.549820 4.395479 -0.321424 0.553707 13.777490 -2.511090 -4.584055 -9.223714 1.407334 -4.510437 -7.230863 -69.306107 -9.301457 -72.514513 -108.166298 -50.095148 -0.000008 0.000000 -0.000022 1.770156 -13.302977 0.321645 0.000001 0.000008 -3.009240 -5.000221 -7.998972 0.000135 4.077299 61.974111 -4.289875 -47.164239 104.456228 34.901106 -0.000001 -0.000001 0.000001 16.942711 12.178616 -1.212493 0.000001 -0.000005 3.008100 -5.000232 7.998893 -0.000143 0.524784 -174.680230 2.160226 -179.999991 0.000005 -1.139994 170.995411 -3.756269 -0.876796 -0.000006 -0.000002 0.108806 68.466752 6.878000 2.198113 25.456858 -7.355621 -0.000015 -4.068202 169.530869 -3.314507 -0.000006 -0.000005 -1.242300 -13.874723 4.217582 1.248841 -0.000003 0.000001 -0.200795 67.466853 -6.916542 -2.150276 25.456856 7.355619 0.000014 
